<svg width="36" height="36" viewBox="0 0 36 36" fill="none" xmlns="http://www.w3.org/2000/svg">
<path d="M16.57 25.5C16.0177 25.5 15.57 25.0523 15.57 24.5V24C15.57 23.4477 16.0177 23 16.57 23H19.4162C19.9685 23 20.4162 23.4477 20.4162 24V24.5C20.4162 25.0523 19.9685 25.5 19.4162 25.5H16.57ZM11.0998 19.25C10.5475 19.25 10.0998 18.8023 10.0998 18.25V17.75C10.0998 17.1977 10.5475 16.75 11.0998 16.75H24.8868C25.4391 16.75 25.8868 17.1977 25.8868 17.75V18.25C25.8868 18.8023 25.4391 19.25 24.8868 19.25H11.0998ZM7 12.5833C6.44772 12.5833 6 12.1356 6 11.5833V11.5C6 10.9477 6.44772 10.5 7 10.5H29C29.5523 10.5 30 10.9477 30 11.5V11.5833C30 12.1356 29.5523 12.5833 29 12.5833H7Z" fill="black"/>
</svg>
