<svg width="36" height="36" viewBox="0 0 36 36" fill="none" xmlns="http://www.w3.org/2000/svg">
<path d="M28.0791 29.2018C27.648 29.6247 26.9432 29.572 26.5799 29.0895L23.9323 25.5734C23.585 25.1122 22.9226 25.0448 22.4435 25.3668C21.7797 25.8128 21.0489 26.1781 20.251 26.4625C19.0971 26.8735 17.9029 27.079 16.6684 27.079C13.6866 27.079 11.163 26.0554 9.09763 24.0082C7.03254 21.961 6 19.4724 6 16.5423C6 13.612 7.0321 11.1224 9.09631 9.07342C11.1605 7.02447 13.672 6 16.6308 6C19.5895 6 22.1016 7.02375 24.167 9.07125C26.2326 11.119 27.2655 13.6085 27.2655 16.5397C27.2655 17.7649 27.0553 18.9502 26.6351 20.0954C26.3366 20.9092 25.9514 21.6617 25.4794 22.3528C25.1628 22.8164 25.2191 23.457 25.6559 23.8096L29.1263 26.6117C29.5916 26.9874 29.6253 27.6847 29.1984 28.1035L28.0791 29.2018ZM16.6505 24.8958C18.9988 24.8958 20.9881 24.0854 22.6184 22.4646C24.2486 20.8434 25.0637 18.8683 25.0637 16.5393C25.0637 14.2103 24.2486 12.2353 22.6184 10.6145C20.9881 8.99362 18.9988 8.1832 16.6505 8.1832C14.2922 8.1832 12.2944 8.99362 10.6572 10.6145C9.01994 12.2353 8.20133 14.2103 8.20133 16.5393C8.20133 18.8683 9.01994 20.8434 10.6572 22.4646C12.2944 24.0854 14.2922 24.8958 16.6505 24.8958Z" fill="black"/>
</svg>
